<?xml version="1.0" encoding="UTF-8" standalone="no"?>
<!-- Copyright 2017 mathsisfun.com -->
<svg xmlns="http://www.w3.org/2000/svg" xmlns:xlink="http://www.w3.org/1999/xlink" width="333.4" height="251.2" version="1.1" style="stroke-width:1pt;">
<defs>
	<marker id="aa5" style="overflow:visible;" orient="auto">
		<path transform="matrix(-0.4,0,0,-0.4,-4,0)" style="fill:#a2deff; stroke:#a2deff;" d="M 0,0 5,-5 -12.5,0 5,5 Z"/>
	</marker>
	<marker style="overflow:visible;" orient="auto">
		<path transform="matrix(-0.8,0,0,-0.8,-10,0)" style="fill:#a2deff; stroke:#a2deff;" d="M 0,0 5,-5 -12.5,0 5,5 Z"/>
	</marker>
	<linearGradient id="aa1">
		<stop offset="0" style="stop-color:black; stop-opacity:1;"/>
		<stop offset="1" style="stop-color:#204a87; stop-opacity:0.15;"/>
	</linearGradient>
	<filter id="aa2" x="-0.154142" y="-0.242237" width="1.30828" height="1.48447">
		<feGaussianBlur stdDeviation="16.489311"/>
	</filter>
	<filter id="aa3" x="-0.383075" y="-0.332406" width="1.76615" height="1.66481">
		<feGaussianBlur stdDeviation="47.169618"/>
	</filter>
	<filter id="aa7" x="-0.0730535" y="-0.114805" width="1.14611" height="1.22961">
		<feGaussianBlur stdDeviation="7.8148833"/>
	</filter>
	<marker id="aa4" style="overflow:visible;" orient="auto">
		<path transform="matrix(-0.4,0,0,-0.4,-4,0)" style="fill:#fce94f; stroke:#fce94f;" d="M 0,0 5,-5 -12.5,0 5,5 Z"/>
	</marker>
	<marker style="overflow:visible;" orient="auto">
		<path transform="matrix(-0.4,0,0,-0.4,-4,0)" style="fill:#19aeff; stroke:#19aeff;" d="M 0,0 5,-5 -12.5,0 5,5 Z"/>
	</marker>
	<linearGradient id="aa6" gradientTransform="matrix(0.882054,0,0,0.842271,-0.046825,9.58003)" xlink:href="#aa1" x1="193.1" y1="295.1" x2="188.4" y2="-9.5" gradientUnits="userSpaceOnUse"/>
</defs>
<ellipse cx="166.7" cy="129.2" rx="166.7" ry="122" style="color:black; overflow:visible; fill:#313a7a; stroke-width:6.62;"/>
<ellipse cx="166" cy="134" rx="85.9" ry="44.5" style="color:black; overflow:visible; fill:white; stroke-width:65.61;"/>
<ellipse cx="165.6" cy="102" rx="113.3" ry="70.3" style="color:black; overflow:visible; fill:none; stroke:#313a7a; stroke-width:26.14;"/>
<ellipse cx="87.6" cy="433.6" rx="128.4" ry="81.7" transform="matrix(0.93346,0,0,0.882054,84.9127,-275.482)" style="color:black; overflow:visible; fill:none; filter:url(#aa2); stroke:white; stroke-width:30;"/>
<circle cx="194.2" cy="166.9" r="150.408" transform="matrix(0.15716,0.017649,-0.006222,0.055404,147.437,54.5896)" style="color:black; overflow:visible; opacity:0.81; fill:white; filter:url(#aa3); stroke-width:73.44;"/>
<ellipse cx="-76.5" cy="167" rx="43.1" ry="24.3" transform="matrix(0.686519,-0.727112,0.705486,0.708724,0,0)" style="color:black; overflow:visible; fill:#19aeff; fill-opacity:0.54; stroke:#3465a4; stroke-width:0.88;"/>
<path style="marker-end:url(#aa4); fill:#fce94f; stroke:#fce94f; stroke-width:3.66;" d="M 168.4,119.2 272.3,167.6"/>
<path style="marker-end:url(#aa5); fill:#a2deff; stroke:#a2deff; stroke-width:2.41;" d="M 63.7,175.9 35.6,197.9"/>
<path style="color:black; overflow:visible; fill:none; stroke:url(#aa6); stroke-width:1.11;" d="M 48.2,159.6 A 129.2,85.8 0 0 1 111.2,49.9 129.2,85.8 0 0 1 280.1,84.7 129.2,85.8 0 0 1 238.5,198.8 129.2,85.8 0 0 1 64.3,178.4"/>
<ellipse cx="87.6" cy="433.6" rx="128.4" ry="81.7" transform="matrix(0.941081,0,0,0.87107,81.3685,-278.89)" style="color:black; overflow:visible; fill:none; filter:url(#aa7); stroke:white; stroke-width:9.14;"/>
<circle cx="194.2" cy="166.9" r="150.408" transform="matrix(0.212188,0.043272,-0.015254,0.074804,72.854,188.754)" style="color:black; overflow:visible; opacity:0.81; fill:white; filter:url(#aa3); stroke-width:73.44;"/>
<ellipse cx="-79.4" cy="166.6" rx="3.8" ry="2.1" transform="matrix(0.686519,-0.727112,0.705486,0.708724,0,0)" style="color:black; overflow:visible; fill:black; stroke-width:0.58;"/>
<ellipse cx="36" cy="204.7" rx="3.8" ry="2.1" transform="matrix(0.686519,-0.727112,0.705486,0.708724,0,0)" style="color:black; overflow:visible; fill:#fce94f; stroke-width:0.58;"/>
<text x="24.2" y="212.6" transform="scale(1.19158,0.839221)" style="font-family:Arial; font-size:58.8px; color:black; overflow:visible; fill:#a2deff; stroke-width:0.88px;">r</text>
<text x="215" y="199.8" style="font-family:Arial; font-size:49.4px; color:black; overflow:visible; fill:#fce94f; stroke-width:0.88px;">R</text>
</svg>